<svg width="363" height="608" viewBox="0 0 363 608" fill="none" xmlns="http://www.w3.org/2000/svg">
<path d="M607.688 304.026C607.688 382.73 577.103 458.353 522.391 514.929C467.678 571.505 393.12 604.605 314.461 607.24C235.801 609.874 159.196 581.838 100.82 529.05C42.444 476.262 6.86688 402.854 1.6004 324.327C-3.66609 245.799 21.7903 168.298 72.5945 108.188C123.399 48.0778 195.574 10.0632 273.881 2.17085C352.189 -5.7215 430.498 17.1262 492.275 65.8896C554.053 114.653 594.462 185.516 604.972 263.515L601.965 263.92C591.561 186.701 551.555 116.547 490.396 68.271C429.236 19.9952 351.71 -2.62402 274.186 5.18941C196.662 13.0028 125.208 50.6373 74.9116 110.146C24.6154 169.656 -0.586384 246.381 4.62744 324.124C9.84126 401.866 45.0626 474.539 102.855 526.8C160.647 579.06 236.486 606.816 314.359 604.207C392.232 601.599 466.044 568.83 520.21 512.82C574.375 456.81 604.655 381.942 604.655 304.026H607.688Z" fill="#29ABF4"/>
</svg>
