<svg width="288" height="120" viewBox="0 0 288 120" fill="none" xmlns="http://www.w3.org/2000/svg">
<path d="M16 0V120" stroke="url(#paint0_linear_173_943)" stroke-width="6"/>
<path d="M66.3097 54.2756C66.196 53.1297 65.7083 52.2396 64.8466 51.6051C63.9848 50.9706 62.8153 50.6534 61.3381 50.6534C60.3343 50.6534 59.4867 50.7955 58.7955 51.0795C58.1042 51.3542 57.5739 51.7377 57.2045 52.2301C56.8447 52.7225 56.6648 53.2812 56.6648 53.9062C56.6458 54.4271 56.7547 54.8816 56.9915 55.2699C57.2377 55.6581 57.5739 55.9943 58 56.2784C58.4261 56.553 58.9186 56.7945 59.4773 57.0028C60.036 57.2017 60.6326 57.3722 61.267 57.5142L63.8807 58.1392C65.1496 58.4233 66.3144 58.8021 67.375 59.2756C68.4356 59.7491 69.3542 60.3314 70.1307 61.0227C70.9072 61.714 71.5085 62.5284 71.9347 63.4659C72.3703 64.4034 72.5928 65.4782 72.6023 66.6903C72.5928 68.4706 72.1383 70.0142 71.2386 71.321C70.3485 72.6184 69.0606 73.6269 67.375 74.3466C65.6989 75.0568 63.6771 75.4119 61.3097 75.4119C58.9612 75.4119 56.9157 75.0521 55.1733 74.3324C53.4403 73.6127 52.0862 72.5473 51.1108 71.1364C50.1449 69.7159 49.6383 67.9593 49.5909 65.8665H55.5426C55.6089 66.8419 55.8883 67.6562 56.3807 68.3097C56.8826 68.9536 57.5502 69.4413 58.3835 69.7727C59.2263 70.0947 60.178 70.2557 61.2386 70.2557C62.2803 70.2557 63.1847 70.1042 63.9517 69.8011C64.7282 69.4981 65.3295 69.0767 65.7557 68.5369C66.1818 67.9972 66.3949 67.3769 66.3949 66.6761C66.3949 66.0227 66.2008 65.4735 65.8125 65.0284C65.4337 64.5833 64.875 64.2045 64.1364 63.892C63.4072 63.5795 62.5123 63.2955 61.4517 63.0398L58.2841 62.2443C55.8314 61.6477 53.8949 60.715 52.4744 59.446C51.054 58.1771 50.3485 56.4678 50.358 54.3182C50.3485 52.5568 50.8172 51.018 51.7642 49.7017C52.7206 48.3854 54.0322 47.358 55.6989 46.6193C57.3655 45.8807 59.2595 45.5114 61.3807 45.5114C63.5398 45.5114 65.4242 45.8807 67.0341 46.6193C68.6534 47.358 69.9129 48.3854 70.8125 49.7017C71.7121 51.018 72.1761 52.5426 72.2045 54.2756H66.3097ZM76.7393 75V45.9091H88.2166C90.4136 45.9091 92.2886 46.3021 93.8416 47.0881C95.4041 47.8646 96.5926 48.9678 97.407 50.3977C98.2308 51.8182 98.6428 53.4896 98.6428 55.4119C98.6428 57.3437 98.2261 59.0057 97.3928 60.3977C96.5594 61.7803 95.352 62.8409 93.7706 63.5795C92.1986 64.3182 90.2952 64.6875 88.0604 64.6875H80.3757V59.7443H87.0661C88.2403 59.7443 89.2157 59.5833 89.9922 59.2614C90.7687 58.9394 91.3464 58.4564 91.7251 57.8125C92.1134 57.1686 92.3075 56.3684 92.3075 55.4119C92.3075 54.446 92.1134 53.6316 91.7251 52.9688C91.3464 52.3059 90.764 51.804 89.978 51.4631C89.2015 51.1127 88.2214 50.9375 87.0376 50.9375H82.8899V75H76.7393ZM92.4496 61.7614L99.6797 75H92.8899L85.8161 61.7614H92.4496ZM107.464 45.9091L114.495 68.0114H114.765L121.81 45.9091H128.629L118.6 75H110.674L100.631 45.9091H107.464ZM132.13 75V45.9091H151.732V50.9801H138.281V57.9119H150.724V62.983H138.281V69.929H151.789V75H132.13ZM166.935 75H156.622V45.9091H167.02C169.946 45.9091 172.465 46.4915 174.577 47.6562C176.688 48.8116 178.313 50.4735 179.449 52.642C180.595 54.8106 181.168 57.4053 181.168 60.4261C181.168 63.4564 180.595 66.0606 179.449 68.2386C178.313 70.4167 176.679 72.0881 174.548 73.2528C172.427 74.4176 169.889 75 166.935 75ZM162.773 69.7301H166.679C168.497 69.7301 170.027 69.4081 171.267 68.7642C172.517 68.1108 173.455 67.1023 174.08 65.7386C174.714 64.3655 175.031 62.5947 175.031 60.4261C175.031 58.2765 174.714 56.5199 174.08 55.1562C173.455 53.7926 172.522 52.7888 171.281 52.1449C170.041 51.5009 168.511 51.179 166.693 51.179H162.773V69.7301ZM211.391 56.0938H205.17C205.056 55.2888 204.824 54.5739 204.474 53.9489C204.123 53.3144 203.674 52.7746 203.124 52.3295C202.575 51.8845 201.941 51.5436 201.221 51.3068C200.511 51.0701 199.739 50.9517 198.906 50.9517C197.4 50.9517 196.088 51.3258 194.971 52.0739C193.853 52.8125 192.987 53.892 192.371 55.3125C191.756 56.7235 191.448 58.4375 191.448 60.4545C191.448 62.5284 191.756 64.2708 192.371 65.6818C192.996 67.0928 193.868 68.1581 194.985 68.8778C196.103 69.5975 197.395 69.9574 198.863 69.9574C199.687 69.9574 200.449 69.8485 201.15 69.6307C201.86 69.4129 202.49 69.0956 203.039 68.679C203.588 68.2528 204.043 67.7367 204.403 67.1307C204.772 66.5246 205.028 65.8333 205.17 65.0568L211.391 65.0852C211.23 66.4205 210.828 67.7083 210.184 68.9489C209.549 70.1799 208.692 71.2831 207.613 72.2585C206.543 73.2244 205.264 73.9915 203.778 74.5597C202.3 75.1184 200.629 75.3977 198.763 75.3977C196.169 75.3977 193.849 74.8106 191.803 73.6364C189.767 72.4621 188.157 70.7623 186.974 68.5369C185.799 66.3116 185.212 63.6174 185.212 60.4545C185.212 57.2822 185.809 54.5833 187.002 52.358C188.195 50.1326 189.815 48.4375 191.86 47.2727C193.906 46.0985 196.207 45.5114 198.763 45.5114C200.449 45.5114 202.012 45.7481 203.451 46.2216C204.9 46.6951 206.183 47.3864 207.3 48.2955C208.418 49.1951 209.327 50.2983 210.028 51.6051C210.738 52.9119 211.192 54.4081 211.391 56.0938ZM220.269 75H213.678L223.721 45.9091H231.647L241.675 75H235.085L227.798 52.5568H227.57L220.269 75ZM219.857 63.5653H235.425V68.3665H219.857V63.5653Z" fill="url(#paint1_linear_173_943)"/>
<defs>
<linearGradient id="paint0_linear_173_943" x1="16.5" y1="0" x2="16.5" y2="120" gradientUnits="userSpaceOnUse">
<stop stop-color="#22AFF1"/>
<stop offset="1" stop-color="#453CC9"/>
</linearGradient>
<linearGradient id="paint1_linear_173_943" x1="168" y1="36" x2="107" y2="84" gradientUnits="userSpaceOnUse">
<stop stop-color="#7AADD8"/>
<stop offset="1" stop-color="#29ABF4"/>
</linearGradient>
</defs>
</svg>
