<svg width="11" height="11" viewBox="0 0 11 11" fill="none" xmlns="http://www.w3.org/2000/svg">
<path d="M8.3935 0.829436C8.52838 0.689785 8.68972 0.578395 8.86811 0.501764C9.0465 0.425134 9.23836 0.384799 9.4325 0.383112C9.62665 0.381425 9.81919 0.41842 9.99888 0.491938C10.1786 0.565457 10.3418 0.674027 10.4791 0.811313C10.6164 0.948599 10.725 1.11185 10.7985 1.29155C10.872 1.47124 10.909 1.66378 10.9073 1.85792C10.9056 2.05206 10.8653 2.24393 10.7887 2.42232C10.712 2.60071 10.6006 2.76205 10.461 2.89693L9.88124 3.47667L7.81375 1.40918L8.3935 0.829436V0.829436ZM6.78001 2.44293L0.654297 8.56864V10.6361H2.72179L8.84823 4.51042L6.77928 2.44293H6.78001Z" fill="black"/>
</svg>
