<svg width="14" height="14" viewBox="0 0 14 14" fill="none" xmlns="http://www.w3.org/2000/svg">
<path fill-rule="evenodd" clip-rule="evenodd" d="M9.21858 8.21192L13.4077 12.401L12.3184 13.4903L8.12927 9.30122C7.34702 9.86415 6.40393 10.2078 5.37311 10.2078C2.74853 10.2078 0.621094 8.08032 0.621094 5.45575C0.621094 2.83117 2.74853 0.703735 5.37311 0.703735C7.99768 0.703735 10.1251 2.83117 10.1251 5.45575C10.1251 6.48657 9.78151 7.42966 9.21858 8.21192ZM5.37311 2.16589C3.55272 2.16589 2.08325 3.63536 2.08325 5.45575C2.08325 7.27613 3.55272 8.7456 5.37311 8.7456C7.19349 8.7456 8.66296 7.27613 8.66296 5.45575C8.66296 3.63536 7.19349 2.16589 5.37311 2.16589Z" fill="#49454F"/>
</svg>
