<svg width="16" height="16" viewBox="0 0 16 16" fill="none" xmlns="http://www.w3.org/2000/svg">
<path d="M11.8328 11.9388H13.2949C13.6827 11.9388 14.0546 11.7848 14.3288 11.5106C14.603 11.2364 14.7571 10.8645 14.7571 10.4767V7.55237C14.7571 7.16458 14.603 6.79267 14.3288 6.51846C14.0546 6.24426 13.6827 6.09021 13.2949 6.09021H3.05981C2.67203 6.09021 2.30012 6.24426 2.02591 6.51846C1.7517 6.79267 1.59766 7.16458 1.59766 7.55237V10.4767C1.59766 10.8645 1.7517 11.2364 2.02591 11.5106C2.30012 11.7848 2.67203 11.9388 3.05981 11.9388H4.52197M5.98413 14.8632H10.3706C10.7584 14.8632 11.1303 14.7091 11.4045 14.4349C11.6787 14.1607 11.8328 13.7888 11.8328 13.401V10.4767C11.8328 10.0889 11.6787 9.71699 11.4045 9.44278C11.1303 9.16857 10.7584 9.01452 10.3706 9.01452H5.98413C5.59634 9.01452 5.22444 9.16857 4.95023 9.44278C4.67602 9.71699 4.52197 10.0889 4.52197 10.4767V13.401C4.52197 13.7888 4.67602 14.1607 4.95023 14.4349C5.22444 14.7091 5.59634 14.8632 5.98413 14.8632ZM11.8328 6.09021V3.16589C11.8328 2.7781 11.6787 2.4062 11.4045 2.13199C11.1303 1.85778 10.7584 1.70374 10.3706 1.70374H5.98413C5.59634 1.70374 5.22444 1.85778 4.95023 2.13199C4.67602 2.4062 4.52197 2.7781 4.52197 3.16589V6.09021H11.8328Z" stroke="white" stroke-width="1.46216" stroke-linecap="round" stroke-linejoin="round"/>
</svg>
