<svg width="11" height="12" viewBox="0 0 11 12" fill="none" xmlns="http://www.w3.org/2000/svg">
<path fill-rule="evenodd" clip-rule="evenodd" d="M4.94897 0.140137C4.81324 0.140209 4.68021 0.178067 4.56477 0.249471C4.44934 0.320875 4.35606 0.423005 4.29539 0.544423L3.76609 1.60229H1.29358C1.09968 1.60229 0.913732 1.67932 0.776628 1.81642C0.639524 1.95353 0.5625 2.13948 0.5625 2.33337C0.5625 2.52727 0.639524 2.71322 0.776628 2.85032C0.913732 2.98743 1.09968 3.06445 1.29358 3.06445V10.3752C1.29358 10.763 1.44763 11.1349 1.72183 11.4091C1.99604 11.6833 2.36795 11.8374 2.75574 11.8374H8.60437C8.99216 11.8374 9.36406 11.6833 9.63827 11.4091C9.91248 11.1349 10.0665 10.763 10.0665 10.3752V3.06445C10.2604 3.06445 10.4464 2.98743 10.5835 2.85032C10.7206 2.71322 10.7976 2.52727 10.7976 2.33337C10.7976 2.13948 10.7206 1.95353 10.5835 1.81642C10.4464 1.67932 10.2604 1.60229 10.0665 1.60229H7.59402L7.06471 0.544423C7.00404 0.423005 6.91077 0.320875 6.79533 0.249471C6.6799 0.178067 6.54686 0.140209 6.41113 0.140137H4.94897ZM3.48682 4.52661C3.48682 4.33272 3.56384 4.14676 3.70094 4.00966C3.83805 3.87256 4.024 3.79553 4.21789 3.79553C4.41179 3.79553 4.59774 3.87256 4.73484 4.00966C4.87195 4.14676 4.94897 4.33272 4.94897 4.52661V8.91308C4.94897 9.10698 4.87195 9.29293 4.73484 9.43003C4.59774 9.56714 4.41179 9.64416 4.21789 9.64416C4.024 9.64416 3.83805 9.56714 3.70094 9.43003C3.56384 9.29293 3.48682 9.10698 3.48682 8.91308V4.52661ZM7.14221 3.79553C6.94832 3.79553 6.76236 3.87256 6.62526 4.00966C6.48815 4.14676 6.41113 4.33272 6.41113 4.52661V8.91308C6.41113 9.10698 6.48815 9.29293 6.62526 9.43003C6.76236 9.56714 6.94832 9.64416 7.14221 9.64416C7.3361 9.64416 7.52206 9.56714 7.65916 9.43003C7.79626 9.29293 7.87329 9.10698 7.87329 8.91308V4.52661C7.87329 4.33272 7.79626 4.14676 7.65916 4.00966C7.52206 3.87256 7.3361 3.79553 7.14221 3.79553Z" fill="black"/>
</svg>
