<svg width="303" height="488" viewBox="0 0 303 488" fill="none" xmlns="http://www.w3.org/2000/svg">
<path d="M487.96 244.026C487.96 307.235 463.396 367.97 419.455 413.408C375.514 458.845 315.635 485.429 252.461 487.545C189.288 489.661 127.764 467.144 80.8811 424.748C33.9981 382.353 5.42518 323.398 1.19553 260.33C-3.03412 197.263 17.4105 135.02 58.2127 86.7438C99.0148 38.4678 156.981 7.93733 219.871 1.59879C282.762 -4.73976 345.654 13.6098 395.269 52.7729C444.884 91.9361 477.338 148.847 485.778 211.491L483.363 211.816C475.007 149.799 442.878 93.457 393.759 54.6854C344.641 15.9139 282.377 -2.2521 220.116 4.02306C157.854 10.2982 100.468 40.5234 60.0736 88.3167C19.6795 136.11 -0.560732 197.73 3.62662 260.167C7.81397 322.604 36.1011 380.97 82.5154 422.941C128.93 464.913 189.838 487.204 252.38 485.109C314.922 483.015 374.202 456.697 417.704 411.714C461.205 366.731 485.523 306.603 485.523 244.026H487.96Z" fill="#29ABF4"/>
</svg>
